<?xml version="1.0" encoding="utf-8"?>
<!-- Svg Vector Icons : http://www.onlinewebfonts.com/icon -->
<!DOCTYPE svg PUBLIC "-//W3C//DTD SVG 1.1//EN" "http://www.w3.org/Graphics/SVG/1.1/DTD/svg11.dtd">
<svg version="1.1" xmlns="http://www.w3.org/2000/svg" xmlns:xlink="http://www.w3.org/1999/xlink" x="0px" y="0px" viewBox="0 0 1000 1000" enable-background="new 0 0 1000 1000" xml:space="preserve">
<metadata> Svg Vector Icons : http://www.onlinewebfonts.com/icon </metadata>
<g><g transform="translate(0.000000,511.000000) scale(0.100000,-0.100000)"><path d="M1625.7,4779.6C816.8,4648.7,217.2,4027.3,112.5,3211.9c-30.5-235.5-6.5-414.3,85-669.4c100.3-285.6,344.5-732.6,614.9-1133.8C1087.2,1001,1832.9,56.9,1880.8,56.9c26.2,0,477.5,545.1,734.8,889.6c614.8,824.2,950.6,1441.2,1031.3,1905.6c34.9,189.7,4.4,464.4-76.3,721.7c-135.2,425.2-484,830.7-898.3,1037.9C2391,4751.2,1926.6,4827.5,1625.7,4779.6z M2175.2,4134.2c492.8-128.6,861.2-597.4,861.2-1094.6c0-320.5-324.9-928.8-935.4-1744.3c-109-148.3-207.1-268.2-218-268.2c-28.3,0-412.1,512.4-610.5,813.3c-355.4,542.9-527.7,911.4-542.9,1160c-28.4,499.3,344.5,996.4,848.1,1131.6C1734.7,4173.4,2016,4175.6,2175.2,4134.2z"/><path d="M1695.5,3606.5c-196.2-71.9-335.8-209.3-399-396.8c-98.1-287.8,65.4-632.3,359.8-758.8c109-45.8,340.1-45.8,449.2,0c385.9,165.7,510.2,658.5,246.4,968.1C2188.3,3606.5,1917.9,3685,1695.5,3606.5z"/><path d="M7940.1,896.3c-329.2-30.5-689-178.8-950.7-392.5c-505.8-409.9-756.6-1138.2-595.2-1720.3c109-392.5,542.9-1142.5,1037.8-1792.3c257.3-338,662.8-826.4,686.8-826.4c26.2,0,416.5,477.5,715.2,872.1c669.4,885.2,1018.2,1554.6,1061.8,2023.4c28.4,298.7-91.6,741.3-279.1,1029.1c-124.3,194.1-390.3,449.2-582.2,562.5c-183.1,109-481.9,213.7-656.3,233.3C8145,909.4,8103.6,911.6,7940.1,896.3z M8498.3,222.6c562.5-200.6,902.7-822,728.3-1338.8c-106.8-314-449.2-889.6-863.4-1443.4c-128.6-174.4-239.8-316.2-246.4-316.2c-19.6,2.2-401.2,523.3-584.3,798c-372.9,558.2-571.3,983.3-571.3,1225.4c0,298.7,115.6,560.4,346.7,789.3c172.2,170.1,314,255.1,529.8,316.2C7998.9,298.9,8326,283.6,8498.3,222.6z"/><path d="M8001.1-261.5c-181-43.6-355.4-178.8-442.6-346.7c-63.2-119.9-56.7-394.6,13.1-529.8c222.4-440.4,830.7-449.2,1085.8-19.6c52.3,89.4,58.9,124.3,58.9,287.8c0,215.9-37.1,309.6-170.1,442.6C8404.5-285.5,8182.1-217.9,8001.1-261.5z"/><path d="M1712.9-270.2c-102.5-43.6-152.6-157-119.9-270.4c37.1-119.9,106.8-157,318.3-170.1c231.1-15.2,351,17.5,405.6,109c24,39.3,43.6,91.6,43.6,119.9c0,78.5-58.9,174.4-130.8,211.5C2146.8-226.6,1811.1-226.6,1712.9-270.2z"/><path d="M2868.5-335.6c-71.9-72-76.3-85-65.4-178.8c15.3-135.2,82.9-196.2,237.7-211.5c569.1-56.7,625.7-58.9,675.9-32.7c85,41.4,126.5,111.2,126.5,211.5c0,76.3-13.1,106.8-61,157c-65.4,65.4-95.9,71.9-494.9,109C2955.7-250.6,2953.6-250.6,2868.5-335.6z"/><path d="M4320.6-627.8c-50.1-50.2-63.2-82.9-63.2-154.8c0-98.1,32.7-139.5,235.5-300.9c67.6-54.5,98.1-95.9,115.6-170.1c61-242,353.2-283.4,447-63.2c24,61,24,89.4-4.4,198.4c-39.2,154.8-87.2,231.1-209.3,348.9C4612.8-549.3,4444.9-503.5,4320.6-627.8z"/><path d="M4189.8-1576.2c-4.3-6.6-150.4-50.2-324.9-98.1c-357.6-98.1-414.3-137.4-414.3-281.3c0-102.5,50.1-174.4,146.1-213.7c69.8-30.5,95.9-26.2,372.8,45.8c372.8,98.1,440.4,130.8,490.6,233.3c52.3,106.8,19.6,220.2-80.7,281.3C4318.5-1571.9,4213.8-1554.4,4189.8-1576.2z"/><path d="M2449.9-2003.6c-170.1-43.6-338-100.3-370.7-124.3c-194-143.9-34.9-457.9,202.8-396.8c357.6,87.2,621.4,163.5,660.7,189.7c71.9,45.8,106.8,178.8,71.9,268.2c-32.7,74.1-137.4,150.4-207.1,148.3C2783.5-1918.5,2622.2-1957.8,2449.9-2003.6z"/><path d="M1276.9-2555.2c-135.2-122.1-207.1-276.9-220.2-466.6c-19.6-296.5,76.3-464.4,261.6-464.4c67.6,0,100.3,15.3,152.6,65.4c65.4,67.6,65.4,69.8,52.3,235.5c-13.1,174.4-13.1,174.4,89.4,333.6c104.7,154.8,24,338-159.2,361.9C1372.8-2478.9,1353.2-2485.4,1276.9-2555.2z"/><path d="M1867.7-3604c-119.9-119.9-89.4-296.5,63.2-370.7c102.5-47.9,595.2-187.5,660.6-187.5c71.9,0,176.6,54.5,205,106.8c10.9,24,21.8,82.9,21.8,130.8c0,146.1-56.7,187.5-370.7,272.5c-150.5,41.4-300.9,85-333.6,98.1C2007.3-3512.4,1946.2-3525.5,1867.7-3604z"/><path d="M3394-3887.4c-196.2-87.2-183.1-359.8,19.6-425.2c37.1-10.9,209.3-39.2,379.4-58.9c257.3-30.5,320.5-32.7,377.2-8.7c167.9,69.8,172.2,344.5,6.5,409.9c-32.7,13.1-183.2,39.2-333.6,58.9c-150.4,17.4-296.5,37.1-327.1,43.6C3485.6-3863.4,3431.1-3872.2,3394-3887.4z"/><path d="M4863.6-4042.2c-65.4-37.1-126.5-135.2-126.5-207.1c0-78.5,65.4-176.6,139.5-207.1c41.4-17.4,209.3-37.1,418.6-45.8l346.7-15.3l69.8,58.9c85,72,106.8,159.2,63.2,259.5c-45.8,113.4-115.6,139.6-438.2,154.8c-154.8,8.7-311.8,19.6-348.9,26.1C4953-4013.9,4896.3-4024.8,4863.6-4042.2z"/><path d="M6363.7-4129.4c-89.4-48-119.9-95.9-122.1-191.9c0-200.6,63.2-228.9,542.9-237.7l375-6.5l65.4,72c119.9,133,65.4,327.1-106.8,375C6987.3-4083.7,6440-4090.2,6363.7-4129.4z"/><path d="M7828.9-4181.8c-61-54.5-72-78.5-72-163.5c0-78.5,13.1-111.2,61-159.2c56.7-56.7,72-61,283.5-67.6c257.3-8.7,324.9,10.9,385.9,109s45.8,204.9-43.6,285.6c-63.2,56.7-74.1,58.9-305.2,58.9C7905.2-4118.5,7898.7-4120.7,7828.9-4181.8z"/></g></g>
</svg>