<?xml version="1.0" encoding="UTF-8"?>
<!-- Generator: Adobe Illustrator 26.0.1, SVG Export Plug-In . SVG Version: 6.00 Build 0)  -->
<svg xmlns="http://www.w3.org/2000/svg" xmlns:xlink="http://www.w3.org/1999/xlink" version="1.1" id="Layer_1" x="0px" y="0px" viewBox="0 0 96 64" style="enable-background:new 0 0 96 64;" xml:space="preserve">
<style type="text/css">
	.st0{fill:#000000;}
	.st1{fill:#000000;}
</style>
<path class="st0" stroke="black" stroke-width="1" d="M3.2,52.8c-0.8,0-1.4-0.6-1.4-1.4c0-0.8,0.6-1.4,1.4-1.4l17.4,0.1c0.8,0,1.4,0.6,1.4,1.4c0,0.8-0.6,1.4-1.4,1.4  l0,0L3.2,52.8z"></path>
<path class="st0" stroke="black" stroke-width="1" d="M46.8,53.1c-0.8,0-1.4-0.6-1.4-1.4c0-0.8,0.6-1.4,1.4-1.4c0,0,0,0,0,0h9.6c0.8,0,1.4,0.6,1.4,1.4  c0,0.8-0.6,1.4-1.4,1.4H46.8z"></path>
<path class="st1" stroke="black" stroke-width="1" d="M74.5,54.2c-4.2,0-7.7-3-8.5-7.1l-0.1-0.5H44.3l-0.1,0.5c-0.8,4.7-5.3,7.8-10,6.9c-3.5-0.6-6.3-3.4-6.9-6.9  l-0.1-0.5H10.4c-0.8,0-1.4-0.6-1.4-1.4V11.3c0-0.8,0.6-1.4,1.4-1.4h67.3c9.1,0,16.5,7.5,16.5,16.6v12.4c0,4.2-3.4,7.7-7.7,7.7H83  l-0.1,0.5C82.2,51.2,78.6,54.1,74.5,54.2z M68.8,44.2c-0.1,0.3-0.1,0.5-0.1,0.8l0,0.2c0,0.1,0,0.3,0,0.4c0,3.2,2.6,5.8,5.8,5.8  s5.8-2.6,5.8-5.8l0,0c0-0.1,0-0.3,0-0.4l0-0.1c0-0.3-0.1-0.5-0.1-0.8c0-0.1-0.1-0.2-0.1-0.2l0-0.1c-0.1-0.3-0.1-0.5-0.3-0.7  c-0.1-0.1-0.1-0.3-0.2-0.4l-0.1-0.2c-0.1-0.1-0.1-0.2-0.2-0.3c-0.1-0.1-0.2-0.2-0.3-0.3l-0.2-0.3c-0.1-0.1-0.1-0.2-0.2-0.2  c-0.2-0.2-0.4-0.3-0.6-0.5c0,0-0.1-0.1-0.1-0.1l-0.2-0.1c-0.2-0.1-0.5-0.3-0.7-0.4l-0.1,0c-0.1,0-0.1-0.1-0.2-0.1  c-0.3-0.1-0.5-0.2-0.8-0.3l-0.3-0.1l-0.1,0c-0.4-0.1-0.7-0.1-1.1-0.1c-0.4,0-0.8,0-1.1,0.1l-0.1,0L73,39.9c-0.3,0.1-0.5,0.1-0.8,0.2  c-0.1,0-0.1,0.1-0.2,0.1L72,40.3c-0.2,0.1-0.5,0.2-0.7,0.4c-0.1,0.1-0.2,0.1-0.3,0.2l-0.1,0c-0.2,0.1-0.4,0.3-0.5,0.5  c-0.1,0.1-0.2,0.3-0.3,0.4l0,0c-0.1,0.1-0.2,0.3-0.3,0.4c-0.1,0.2-0.2,0.4-0.3,0.5c-0.1,0.1-0.2,0.3-0.2,0.4  c-0.1,0.2-0.2,0.5-0.2,0.7l0,0.1C68.9,44,68.9,44.1,68.8,44.2L68.8,44.2z M35.8,39.7c-0.4,0-0.8,0-1.1,0.1l-0.1,0l-0.3,0.1  c-0.3,0.1-0.5,0.1-0.8,0.2c-0.1,0-0.2,0.1-0.2,0.1c-0.2,0.1-0.5,0.2-0.7,0.4c-0.1,0.1-0.2,0.1-0.3,0.2l-0.1,0  c-0.2,0.1-0.4,0.3-0.5,0.5c-0.1,0.1-0.2,0.2-0.3,0.3l-0.2,0.2c-0.1,0.1-0.2,0.2-0.3,0.4c-0.1,0.1-0.2,0.2-0.2,0.4  c0,0-0.1,0.2-0.2,0.3c0,0.1-0.1,0.2-0.1,0.3c-0.1,0.2-0.2,0.5-0.2,0.7l0,0.1c0,0.1,0,0.2-0.1,0.2C30.1,44.4,30,44.7,30,45  c0,0,0,0.1,0,0.1c0,0.1,0,0.2,0,0.4c0,3.2,2.5,5.8,5.7,5.9c3.2,0,5.8-2.5,5.9-5.7c0-0.1,0-0.1,0-0.2c0-0.1,0-0.3,0-0.4  c0,0,0-0.1,0-0.1c0-0.3-0.1-0.5-0.1-0.8c0-0.1,0-0.1-0.1-0.2c0,0,0-0.1,0-0.1l-0.1-0.2c-0.1-0.2-0.1-0.4-0.2-0.5  c0-0.1-0.1-0.2-0.1-0.3c0,0,0-0.1-0.1-0.1c-0.1-0.2-0.2-0.3-0.3-0.5c-0.1-0.2-0.3-0.4-0.4-0.5l-0.3-0.3l0,0  c-0.2-0.2-0.4-0.3-0.6-0.5l-0.1-0.1c-0.1-0.1-0.1-0.1-0.2-0.2c-0.2-0.1-0.4-0.2-0.6-0.3L38,40.1c-0.3-0.1-0.5-0.2-0.8-0.3l-0.3-0.1  l-0.1,0C36.5,39.7,36.1,39.7,35.8,39.7z M83,43.7h3.6c2.7,0,4.8-2.2,4.8-4.9v-5.1L83,30H11.9v13.7h15.6v-0.5l0,0v0  c0.1-0.4,0.2-0.8,0.4-1.2l0.1-0.1c0.2-0.4,0.4-0.7,0.6-1.1l0.1-0.1c0.2-0.3,0.5-0.6,0.7-0.9l0.3-0.3c0.2-0.2,0.5-0.5,0.8-0.7  c0.1-0.1,0.1-0.1,0.1-0.1c0.1,0,0.1-0.1,0.2-0.1c0.2-0.1,0.5-0.3,0.8-0.5c0.1,0,0.2-0.1,0.3-0.2c0.3-0.2,0.6-0.3,1-0.4l0.3-0.1  c0.4-0.1,0.7-0.2,1.1-0.3l0,0l0,0c0.1,0,0.2,0,0.2,0c0.4-0.1,0.9-0.1,1.3-0.1c0.4,0,0.8,0,1.3,0.1c0.1,0,0.1,0,0.2,0l0,0l0.1,0  c0.4,0.1,0.8,0.2,1.1,0.3c0.1,0,0.2,0.1,0.3,0.1c0.3,0.1,0.6,0.3,0.9,0.4l0.3,0.2c0.3,0.2,0.6,0.3,0.8,0.5l0.1,0.1  c0.1,0,0.1,0.1,0.2,0.1c0.3,0.2,0.6,0.5,0.8,0.7c0,0,0.2,0.3,0.3,0.3c0.2,0.3,0.5,0.6,0.7,0.8c0,0,0,0.1,0,0.1l0.1,0.1  c0.2,0.3,0.4,0.7,0.6,1c0,0.1,0.1,0.1,0.1,0.2c0.2,0.4,0.3,0.8,0.4,1.2l0,0.2l0,0l0.2,0.3h21.9v-0.5l0,0v0c0.1-0.4,0.3-0.8,0.4-1.2  l0-0.1l0,0c0,0,0-0.1,0.1-0.1c0.2-0.3,0.4-0.7,0.6-1l0.1-0.1c0.2-0.3,0.4-0.6,0.7-0.9c0.1-0.1,0.2-0.2,0.2-0.3  c0.3-0.3,0.5-0.5,0.8-0.8c0.1-0.1,0.1-0.1,0.2-0.1l0.1-0.1c0.3-0.2,0.6-0.4,0.8-0.5c0.1,0,0.2-0.1,0.3-0.2c0.3-0.2,0.6-0.3,1-0.4  l0.3-0.1c0.4-0.1,0.7-0.2,1.1-0.3l0,0l0,0c0.1,0,0.2,0,0.2,0c0.4-0.1,0.9-0.1,1.3-0.1c0.4,0,0.8,0,1.3,0.1c0.1,0,0.1,0,0.2,0l0.1,0  l0.1,0c0.4,0.1,0.8,0.2,1.1,0.3l0.2,0.1c0,0,0.1,0,0.1,0c0.4,0.2,0.7,0.3,1,0.5l0.1,0c0.1,0,0.1,0.1,0.2,0.1  c0.3,0.2,0.6,0.4,0.8,0.5l0.3,0.2c0.3,0.2,0.5,0.5,0.8,0.7c0.1,0.1,0.2,0.2,0.3,0.3c0.2,0.3,0.5,0.6,0.7,0.9c0,0,0,0.1,0.1,0.1  c0.2,0.3,0.4,0.7,0.6,1l0.1,0.2c0.2,0.4,0.3,0.8,0.4,1.2l0,0.2l0,0L83,43.7z M83.8,27.3l7.6,3.4v-4.2c0-4.8-2.5-9.3-6.6-11.8l-1-0.6  C83.8,14.1,83.8,27.3,83.8,27.3z M70.3,27.2H81V13.1L80.5,13c-0.9-0.2-1.8-0.3-2.7-0.3h-7.4V27.2z M47.2,27.2h20.3V12.7H47.2  L47.2,27.2z M22.7,27.2h21.7V12.7H22.7L22.7,27.2z M11.9,27.2h8V12.7h-8V27.2z"></path>
</svg>
